<svg width="48" height="48" viewBox="0 0 48 48" fill="none" xmlns="http://www.w3.org/2000/svg">
<g id="Pornhub">
<g id="Pornhub_2">
<rect id="Rectangle" width="48" height="48" rx="24" fill="#1B1B1B"/>
<g id="Group">
<path id="Subtract" fill-rule="evenodd" clip-rule="evenodd" d="M26.6109 18.9557H41.2502C41.7053 19.0068 41.956 19.2853 42 19.7936V28.2062C41.9562 28.7137 41.7063 28.9914 41.2536 29.0443H26.6068C26.1544 28.9914 25.9043 28.7139 25.8606 28.2062V19.7936C25.9049 19.2853 26.1554 19.0068 26.6109 18.9557ZM39.5717 22.3418C39.9353 22.4228 40.269 22.599 40.5174 22.8735C40.8694 23.2634 41.0456 23.8228 41.0456 24.5523C41.0456 25.3066 40.8659 25.8871 40.5069 26.2951C40.148 26.7027 39.7118 26.9065 39.1986 26.9065C39.1828 26.9065 39.1668 26.9063 39.1509 26.9059C39.1288 26.9063 39.1061 26.9065 39.0821 26.9065C38.4699 26.9065 38.068 26.6725 37.8177 26.4709V26.8069H36.7318V20.7084H37.9008L37.8311 22.6782C38.1182 22.4372 38.7356 22.245 39.2163 22.2887C39.3486 22.2945 39.4676 22.3142 39.5717 22.3418ZM38.9159 25.9829C39.1739 25.9829 39.3937 25.8729 39.5752 25.6525C39.7568 25.4318 39.8478 25.0847 39.8478 24.6102C39.8478 24.1058 39.756 23.7416 39.5731 23.5183C39.39 23.2953 39.1558 23.1836 38.87 23.1836C38.5899 23.1836 38.3571 23.2926 38.1711 23.5102C37.9854 23.7278 37.8924 24.0585 37.8924 24.5022C37.8924 24.9599 37.9647 25.2981 38.1088 25.5171C38.3112 25.8277 38.5801 25.9829 38.9159 25.9829ZM34.7606 25.4444C34.8189 25.282 34.8479 24.8848 34.8479 24.2525V22.3889H36.0167V26.8067H34.9311V26.3201C34.7338 26.5426 34.3463 26.8799 33.6024 26.9014C33.6012 26.9019 33.601 26.9019 33.5989 26.9019C33.5553 26.9049 33.5113 26.9065 33.4668 26.9065C33.17 26.9065 32.9039 26.8414 32.6681 26.711C32.4324 26.5807 32.2619 26.3976 32.1566 26.162C32.0512 25.9261 31.9986 25.6003 31.9986 25.1844V22.3889H33.1674V24.4188C33.1674 25.0403 33.1887 25.4207 33.2318 25.5607C33.2746 25.7008 33.3531 25.8118 33.4668 25.8936C33.5805 25.9754 33.7248 26.0162 33.8996 26.0162C34.0991 26.0162 34.2781 25.9616 34.436 25.8518C34.5942 25.7426 34.7024 25.6066 34.7606 25.4444ZM30.5453 22.4391C30.7615 22.5389 30.9242 22.6666 31.0339 22.8217C31.1433 22.977 31.2184 23.1487 31.2584 23.3377C31.2985 23.526 31.3188 23.8187 31.3188 24.2152V26.8067H30.1501V24.473C30.1501 24.01 30.1277 23.7162 30.0835 23.5912C30.0392 23.4666 29.9607 23.3673 29.8484 23.2938C29.7364 23.2204 29.5953 23.1836 29.4264 23.1836C29.232 23.1836 29.0588 23.2309 28.9064 23.3249C28.7538 23.4193 28.6423 23.5614 28.5715 23.7516C28.5008 23.9413 28.4653 24.2223 28.4653 24.5939V26.8067H27.2965V20.7084H28.4653V22.6908C28.7594 22.4078 29.3895 22.2641 29.8821 22.2903L29.8939 22.2911C30.1326 22.2998 30.3496 22.3487 30.5453 22.4391Z" fill="white"/>
<path id="Vector" d="M24.4432 23.0893C24.3979 22.8968 24.3178 22.7245 24.2029 22.5729C24.0874 22.4213 23.9175 22.2964 23.6928 22.1988C23.4681 22.1012 23.2202 22.0524 22.9489 22.0524C22.457 22.0244 21.6587 22.2122 21.4176 22.5942V22.1572H20.2756V26.8039H21.505V24.6995C21.505 24.1803 21.5365 23.8243 21.5992 23.6319C21.6617 23.4392 21.7778 23.2847 21.9471 23.168C22.1162 23.0513 22.3072 22.9929 22.5202 22.9929C22.6864 22.9929 22.8287 23.0341 22.9468 23.1155C23.065 23.1971 23.1504 23.3117 23.2028 23.4589C23.2554 23.6065 23.2815 23.9308 23.2815 24.4324V26.8039H24.511V23.9162C24.511 23.5574 24.4885 23.2817 24.4432 23.0893ZM18.5849 22.0701C18.2212 22.1166 17.8735 22.4101 17.7212 22.597V22.1574H16.5793V26.8041H17.8087V25.369C17.8087 24.5784 17.843 24.0593 17.9116 23.8113C17.98 23.5632 18.0742 23.3921 18.1938 23.2971C18.3133 23.2023 18.4593 23.1548 18.6314 23.1548C18.8092 23.1548 19.0017 23.2218 19.2089 23.356L19.5897 22.284C19.3301 22.1296 19.0601 22.0524 18.7802 22.0524C18.7126 22.0524 18.6477 22.0585 18.5849 22.0701ZM13.5704 22.0522C13.1154 22.0522 12.7033 22.1527 12.3345 22.3543C11.9653 22.5552 11.6803 22.8469 11.4789 23.2291C11.2778 23.6113 11.1771 24.0066 11.1771 24.415C11.1771 24.9488 11.2778 25.4017 11.4789 25.7733C11.6803 26.1456 11.974 26.4277 12.3607 26.62C12.7471 26.8124 13.1533 26.909 13.5792 26.909C14.2675 26.909 14.8385 26.6778 15.2921 26.2154C15.7458 25.753 15.9725 25.1705 15.9725 24.4671C15.9725 23.7703 15.748 23.1934 15.2988 22.7369C14.8494 22.2806 14.2734 22.0522 13.5704 22.0522ZM14.3822 25.5395C14.1648 25.7845 13.8956 25.9071 13.5747 25.9071C13.2538 25.9071 12.984 25.7845 12.7654 25.5395C12.5466 25.2943 12.4372 24.9413 12.4372 24.4805C12.4372 24.0198 12.5466 23.6666 12.7654 23.4216C12.984 23.1768 13.2538 23.0542 13.5747 23.0542C13.8956 23.0542 14.1648 23.1768 14.3822 23.4216C14.5994 23.6666 14.7082 24.0169 14.7082 24.4718C14.7082 24.9387 14.5994 25.2943 14.3822 25.5395ZM9.61837 20.4858C9.37926 20.4215 8.86591 20.3894 8.07834 20.3894H6V26.8039H7.29503V24.3843H8.13944C8.72586 24.3843 9.17364 24.3537 9.48278 24.2924C9.71052 24.2428 9.93421 24.1413 10.1544 23.9883C10.3747 23.8352 10.5562 23.6245 10.6993 23.356C10.8422 23.0879 10.9136 22.7566 10.9136 22.3628C10.9136 21.8523 10.7896 21.436 10.5417 21.1134C10.2937 20.7913 9.98597 20.5818 9.61837 20.4858ZM9.43244 22.8792C9.3348 23.0223 9.20002 23.1272 9.02789 23.1942C8.85576 23.2612 8.51414 23.2947 8.00385 23.2947H7.29503V21.4746H7.92083C8.38748 21.4746 8.69825 21.4892 8.85272 21.5184C9.06281 21.5564 9.23636 21.6511 9.37357 21.8028C9.51038 21.9544 9.57919 22.1468 9.57919 22.3803C9.57919 22.5698 9.53007 22.7363 9.43244 22.8792Z" fill="white"/>
</g>
</g>
</g>
</svg>
